# xmcd CD database file
#
# Track frame offsets:
#	150
#	14580
#	31165
#	54690
#	64578
#	90444
#	115858
#	135140
#	147823
#	170512
#	184210
#	213437
#
# Disc length: 3029 seconds
#
# Revision: 0
# Processed by: cddbd v1.5.1PL0 Copyright (c) Steve Scherf et al.
# Submitted via: CDex 1.51
#
DISCID=9e0bd30c
DTITLE=4 Handful Of Blues - Another 4 Handful Of Blues
DYEAR=2004
DGENRE=Blues
TTITLE0=Hoochie coochie
TTITLE1=start it up mix 1 2.6.03
TTITLE2=dangoures mood
TTITLE3=Love strock 31.7.03./2
TTITLE4=Ain't gone and give up to m
TTITLE5=fence 7
TTITLE6=Help the poor
TTITLE7=Dirty low
TTITLE8=Baby  Lee
TTITLE9=huge and greece 31..7.03
TTITLE10=malted milk
TTITLE11=sweet home 
EXTD=YEAR: 2004
EXTT0=
EXTT1=
EXTT2=
EXTT3=
EXTT4=
EXTT5=
EXTT6=
EXTT7=
EXTT8=
EXTT9=
EXTT10=
EXTT11=
PLAYORDER=
